<svg width="250" height="292" viewBox="0 0 250 292" fill="none" xmlns="http://www.w3.org/2000/svg">
<path fill-rule="evenodd" clip-rule="evenodd" d="M0 49C0 40.7157 6.71573 34 15 34H235C243.284 34 250 40.7157 250 49V277C250 285.284 243.284 292 235 292H15C6.71573 292 0 285.284 0 277V49Z" fill="#EDF0F6"/>
<path fill-rule="evenodd" clip-rule="evenodd" d="M202.884 33.4829C200.736 32.571 195.236 30.8821 195.236 22.8339C195.236 14.7858 208.564 -2.34861 216.006 0.416357C223.447 3.18132 220.234 23.9732 216.006 29.9083C211.778 35.8435 205.031 34.3947 202.884 33.4829Z" fill="#C5DDF0"/>
<path d="M199.003 72.279H198.457C198.457 46.0228 203.304 24.678 213.006 8.24744L213.476 8.52504C203.829 24.8635 199.003 46.1139 199.003 72.279Z" fill="#7297C4"/>
<path fill-rule="evenodd" clip-rule="evenodd" d="M192.186 52.8204C195.72 51.3662 200.766 45.5578 197.096 37.2876C193.427 29.0174 180.451 18.6602 174.335 23.9745C168.22 29.2889 175.615 46.726 179.43 50.8077C183.245 54.8894 188.652 54.2746 192.186 52.8204Z" fill="#C5DDF0"/>
<path d="M194.777 72.2804L194.231 72.2776C194.314 55.7727 189.87 42.5817 180.902 32.6906L181.307 32.3238C190.372 42.3225 194.861 55.646 194.777 72.2804Z" fill="#7297C4"/>
<path fill-rule="evenodd" clip-rule="evenodd" d="M206.993 58.0305C205.008 56.5391 202.048 54.5333 204.644 47.8786C207.24 41.2238 218.91 34.6451 222.793 38.3659C226.676 42.0868 222.073 54.8571 217.657 58.3285C213.24 61.8 208.977 59.5219 206.993 58.0305Z" fill="#C5DDF0"/>
<path d="M203.798 72.3269L203.261 72.2311C205.45 59.9421 210.192 50.1453 217.488 42.8485L217.874 43.2345C210.662 50.4479 205.969 60.1428 203.798 72.3269Z" fill="#7297C4"/>
<path fill-rule="evenodd" clip-rule="evenodd" d="M184.735 68.9288H214.103V80.7583C214.103 85.9277 209.912 90.1183 204.743 90.1183H194.095C188.925 90.1183 184.735 85.9277 184.735 80.7583V68.9288Z" fill="url(#paint0_linear_101_23)"/>
<mask id="mask0_101_23" style="mask-type:luminance" maskUnits="userSpaceOnUse" x="184" y="68" width="31" height="23">
<path fill-rule="evenodd" clip-rule="evenodd" d="M184.735 68.9288H214.103V80.7583C214.103 85.9277 209.912 90.1183 204.743 90.1183H194.095C188.925 90.1183 184.735 85.9277 184.735 80.7583V68.9288Z" fill="white"/>
</mask>
<g mask="url(#mask0_101_23)">
<path d="M183.541 73.2738V72.7278H214.781V73.2738H183.541Z" fill="#7297C4"/>
<path d="M183.541 76.9183V76.3723H214.781V76.9183H183.541Z" fill="#7297C4"/>
</g>
<rect x="25" y="49.3587" width="84.15" height="42.075" fill="url(#paint1_linear_101_23)"/>
<mask id="mask1_101_23" style="mask-type:luminance" maskUnits="userSpaceOnUse" x="25" y="49" width="85" height="43">
<rect x="25" y="49.3587" width="84.15" height="42.075" fill="white"/>
</mask>
<g mask="url(#mask1_101_23)">
<rect opacity="0.3" x="58.6602" y="108.762" width="96.7974" height="23.3031" transform="rotate(-30 58.6602 108.762)" fill="white"/>
<path d="M70.3113 68.4081C69.775 68.4081 69.3403 67.9734 69.3403 67.4371C69.3403 66.9009 69.775 66.4662 70.3113 66.4662H88.3434C88.8797 66.4662 89.3144 66.9009 89.3144 67.4371C89.3144 67.9734 88.8797 68.4081 88.3434 68.4081H70.3113Z" fill="white"/>
<path opacity="0.15" fill-rule="evenodd" clip-rule="evenodd" d="M25 49.3587H48.9504V92.081H25V49.3587Z" fill="#001D4B"/>
<path fill-rule="evenodd" clip-rule="evenodd" d="M10.6709 90.1391C10.6709 99.0766 17.9161 106.322 26.8536 106.322C35.791 106.322 43.0363 99.0766 43.0363 90.1391C43.0363 81.2017 35.791 73.9564 26.8536 73.9564C17.9161 73.9564 10.6709 81.2017 10.6709 90.1391ZM36.5632 90.1391C36.5632 95.5016 32.2161 99.8487 26.8536 99.8487C21.4911 99.8487 17.144 95.5016 17.144 90.1391C17.144 84.7766 21.4911 80.4295 26.8536 80.4295C32.2161 80.4295 36.5632 84.7766 36.5632 90.1391Z" fill="#E0987C"/>
<path d="M25 57.9473V57.1823H109.15V57.9473H25Z" fill="#D33234"/>
</g>
<rect x="36.8999" y="19" width="60.9396" height="30.4698" fill="url(#paint2_linear_101_23)"/>
<mask id="mask2_101_23" style="mask-type:luminance" maskUnits="userSpaceOnUse" x="36" y="19" width="62" height="31">
<rect x="36.8999" y="19" width="60.9396" height="30.4698" fill="white"/>
</mask>
<g mask="url(#mask2_101_23)">
<path d="M69.0625 34.0452H84.7252" stroke="#0069D5" stroke-width="1.95319" stroke-linecap="round" stroke-linejoin="round"/>
<path opacity="0.12" fill-rule="evenodd" clip-rule="evenodd" d="M36.8999 19H54.8953V49.9385H36.8999V19Z" fill="#001D4B"/>
<path opacity="0.3" fill-rule="evenodd" clip-rule="evenodd" d="M41.327 43.0242C42.0462 43.0242 42.6292 42.4413 42.6292 41.7221C42.6292 41.003 42.0462 40.42 41.327 40.42C40.6079 40.42 40.0249 41.003 40.0249 41.7221C40.0249 42.4413 40.6079 43.0242 41.327 43.0242ZM41.327 46.9306C42.0462 46.9306 42.6292 46.3476 42.6292 45.6285C42.6292 44.9093 42.0462 44.3264 41.327 44.3264C40.6079 44.3264 40.0249 44.9093 40.0249 45.6285C40.0249 46.3476 40.6079 46.9306 41.327 46.9306ZM45.8845 46.9306C46.6036 46.9306 47.1866 46.3476 47.1866 45.6285C47.1866 44.9093 46.6036 44.3264 45.8845 44.3264C45.1653 44.3264 44.5823 44.9093 44.5823 45.6285C44.5823 46.3476 45.1653 46.9306 45.8845 46.9306ZM51.7441 45.6285C51.7441 46.3476 51.1611 46.9306 50.4419 46.9306C49.7228 46.9306 49.1398 46.3476 49.1398 45.6285C49.1398 44.9093 49.7228 44.3264 50.4419 44.3264C51.1611 44.3264 51.7441 44.9093 51.7441 45.6285ZM47.1866 41.7221C47.1866 42.4413 46.6036 43.0242 45.8845 43.0242C45.1653 43.0242 44.5823 42.4413 44.5823 41.7221C44.5823 41.003 45.1653 40.42 45.8845 40.42C46.6036 40.42 47.1866 41.003 47.1866 41.7221ZM50.4419 43.0242C51.1611 43.0242 51.7441 42.4413 51.7441 41.7221C51.7441 41.003 51.1611 40.42 50.4419 40.42C49.7228 40.42 49.1398 41.003 49.1398 41.7221C49.1398 42.4413 49.7228 43.0242 50.4419 43.0242Z" fill="white"/>
<path d="M36.8999 25.8216V25.3658H97.8395V25.8216H36.8999Z" fill="#0069D5"/>
</g>
<defs>
<linearGradient id="paint0_linear_101_23" x1="185.417" y1="53.8452" x2="158.62" y2="100.137" gradientUnits="userSpaceOnUse">
<stop stop-color="#CBDDEE"/>
<stop offset="1" stop-color="#B8D0E6"/>
<stop offset="1" stop-color="#B8D0E6"/>
</linearGradient>
<linearGradient id="paint1_linear_101_23" x1="135.854" y1="69.5192" x2="82.9344" y2="13.5042" gradientUnits="userSpaceOnUse">
<stop stop-color="#FFB966"/>
<stop offset="1" stop-color="#FF895F"/>
<stop offset="1" stop-color="#FF895F"/>
</linearGradient>
<linearGradient id="paint2_linear_101_23" x1="119.966" y1="40.6998" x2="103.16" y2="6.84759" gradientUnits="userSpaceOnUse">
<stop stop-color="#85D4FF"/>
<stop offset="1" stop-color="#51A4FF"/>
</linearGradient>
</defs>
</svg>
